Coordinates
version=1
nRows=19
nColumns=18
inDegrees=yes

Units are S.I. units (second, meters, Newtons, ...)
If the header above contains a line with 'inDegrees', this indicates whether rotational values are in degrees (yes) or radians (no).

endheader
time	ground_thorax_rot_x	ground_thorax_rot_y	ground_thorax_rot_z	ground_thorax_tx	ground_thorax_ty	ground_thorax_tz	clav_prot	clav_elev	scapula_abduction	scapula_elevation	scapula_upward_rot	scapula_winging	plane_elv	shoulder_elv	axial_rot	elbow_flexion	pro_sup
      6.26000000	      1.55159377	     -6.90531631	    -10.75951382	      0.00000000	      0.00000000	      0.00000000	    -21.29308017	     -5.12140222	     -7.80539891	     -5.54683914	     16.79185788	      4.65837747	     18.47603126	     22.48417593	      6.39043758	      0.00000000	     34.32000000
      6.27000000	      1.13434607	     -6.92890945	    -10.49775676	      0.00000000	      0.00000000	      0.00000000	    -21.08678727	     -5.44880277	     -7.79186607	     -5.61546942	     16.10550165	      4.92644455	     15.91969844	     21.74989280	     11.54868380	      0.00000000	     34.32000000
      6.28000000	      1.23865547	     -7.14020925	    -10.72404187	      0.00000000	      0.00000000	      0.00000000	    -21.11054990	     -5.40634618	     -7.87287018	     -5.57223067	     16.05630530	      4.92494140	     15.86179467	     21.70210542	     11.56534523	      0.00000000	     34.32000000
      6.29000000	      1.31751695	     -6.95351192	    -10.72872647	      0.00000000	      0.00000000	      0.00000000	    -21.32949281	     -5.31263604	     -8.24191351	     -5.52660824	     16.10987158	      4.89666090	     14.10076042	     21.37029201	     12.21316632	      0.00000000	     34.32000000
      6.30000000	      1.24526749	     -6.92992359	    -10.70855168	      0.00000000	      0.00000000	      0.00000000	    -21.35089750	     -5.36483190	     -8.30239907	     -5.55323959	     16.05171743	      4.93187715	     12.63746804	     21.01926594	     12.97883877	      0.00000000	     34.32000000
      6.31000000	      1.33350499	     -6.85324865	    -10.69032478	      0.00000000	      0.00000000	      0.00000000	    -21.32221805	     -5.42071846	     -8.30193688	     -5.56885599	     15.94944850	      4.97485983	     10.95858801	     20.91283092	     13.93538176	      0.00000000	     34.32000000
      6.32000000	      1.38482857	     -6.79299169	    -10.64365728	      0.00000000	      0.00000000	      0.00000000	    -21.27054986	     -5.51441120	     -8.31356988	     -5.58705838	     15.74698417	      5.05406924	      9.22015069	     20.84290522	     15.00635138	      0.00000000	     34.32000000
      6.33000000	      1.31420019	     -6.80227968	    -10.58971163	      0.00000000	      0.00000000	      0.00000000	    -21.23252743	     -5.62916475	     -8.34046036	     -5.62343272	     15.55006728	      5.14104904	      7.78876444	     20.59845285	     16.02129900	      0.00000000	     34.32000000
      6.34000000	      1.34296439	     -6.77413498	    -10.66143282	      0.00000000	      0.00000000	      0.00000000	    -21.34030632	     -5.66096068	     -8.44287355	     -5.68588302	     15.67806727	      5.13178673	      6.92694393	     20.08164519	     17.52227669	      0.00000000	     34.32000000
      6.35000000	      1.21239665	     -6.63110340	    -10.58631546	      0.00000000	      0.00000000	      0.00000000	    -21.45720683	     -5.56237055	     -8.71339659	     -5.59862695	     15.60310063	      5.12244800	      5.89052827	     19.51352347	     18.51033515	      0.00000000	     34.32000000
      6.36000000	      1.26515793	     -6.57786819	    -10.53365813	      0.00000000	      0.00000000	      0.00000000	    -21.54563797	     -5.34568204	     -8.83313830	     -5.47271564	     15.74127342	      5.01552935	      4.61434580	     18.89860852	     20.87815315	      0.00000000	     34.32000000
      6.37000000	      1.46409942	     -6.55135856	    -10.67512250	      0.00000000	      0.00000000	      0.00000000	    -21.47357234	     -5.36215529	     -8.89752798	     -5.40112944	     15.42145569	      5.09338913	      4.04326081	     19.31235374	     21.07655472	      0.00000000	     34.32000000
      6.38000000	      1.34547940	     -6.41577009	    -10.54798400	      0.00000000	      0.00000000	      0.00000000	    -21.53610646	     -5.47208893	     -9.05590187	     -5.45732675	     15.29615117	      5.16910252	      1.68319260	     18.83049984	     23.85125367	      0.00000000	     34.32000000
      6.39000000	      1.36982787	     -6.33646886	    -10.51023599	      0.00000000	      0.00000000	      0.00000000	    -21.50736955	     -5.62347936	     -9.15432764	     -5.49462997	     14.99087894	      5.29671461	      0.09354697	     18.84641803	     26.46904865	      0.00000000	     34.32000000
      6.40000000	      1.41705027	     -6.29506062	    -10.47279937	      0.00000000	      0.00000000	      0.00000000	    -21.52867688	     -5.64475936	     -9.31208062	     -5.45896689	     14.78036375	      5.35708162	     -0.84430390	     18.85583402	     27.71135595	      0.00000000	     34.32000000
      6.41000000	      1.39016687	     -6.29655998	    -10.49257905	      0.00000000	      0.00000000	      0.00000000	    -21.54516216	     -5.65734447	     -9.40067746	     -5.44280773	     14.67473928	      5.38854031	     -1.54981010	     18.70825894	     28.81940972	      0.00000000	     34.32000000
      6.42000000	      1.37773396	     -6.27151660	    -10.48786777	      0.00000000	      0.00000000	      0.00000000	    -21.54987669	     -5.60196677	     -9.46306558	     -5.38293480	     14.60491672	      5.38522217	     -2.19559650	     18.56384725	     29.74868709	      0.00000000	     34.32000000
      6.43000000	      1.38440808	     -6.17306670	    -10.45802372	      0.00000000	      0.00000000	      0.00000000	    -21.60543320	     -5.52471353	     -9.60331122	     -5.31581625	     14.56093052	      5.37172307	     -2.92579862	     18.38002064	     30.73029390	      0.00000000	     34.32000000
      6.44000000	      1.36880834	     -6.03442546	    -10.40541283	      0.00000000	      0.00000000	      0.00000000	    -21.73829756	     -5.46026244	     -9.86864317	     -5.26560873	     14.52708218	      5.36627063	     -3.74716763	     18.03422336	     31.98660325	      0.00000000	     34.32000000
